Coordinates
version=1
nRows=17
nColumns=40
inDegrees=yes

Units are S.I. units (second, meters, Newtons, ...)
Angles are in degrees.

endheader
time	pelvis_tilt	pelvis_list	pelvis_rotation	pelvis_tx	pelvis_ty	pelvis_tz	hip_flexion_r	hip_adduction_r	hip_rotation_r	knee_angle_r	knee_angle_r_beta	ankle_angle_r	subtalar_angle_r	mtp_angle_r	hip_flexion_l	hip_adduction_l	hip_rotation_l	knee_angle_l	knee_angle_l_beta	ankle_angle_l	subtalar_angle_l	mtp_angle_l	lumbar_extension	lumbar_bending	lumbar_rotation	arm_flex_r	arm_add_r	arm_rot_r	elbow_flex_r	pro_sup_r	wrist_flex_r	wrist_dev_r	arm_flex_l	arm_add_l	arm_rot_l	elbow_flex_l	pro_sup_l	wrist_flex_l	wrist_dev_l
     48.83000000	     -3.41504435	     -6.34432239	      3.24330434	      1.14264560	      0.93013012	      0.49118876	     13.16771804	      4.08675646	    -18.02897309	     15.12258410	     15.12258410	      7.60713498	      1.31823492	     -6.74138107	     28.99170352	    -12.60573672	      2.10047248	     71.31003189	     71.31003189	      8.20267286	    -18.32286722	     11.00938600	     -9.75993804	      7.86647700	      5.57618398	      7.46849277	    -14.85001860	     -9.38772294	     32.39979409	     45.90663391	      0.00000000	      0.00000000	      6.48424732	     -9.32657498	     -2.43132083	     70.22455152	     46.54580044	      0.00000000	      0.00000000
     48.84185714	     -3.40742294	     -6.31559459	      3.63177928	      1.14113613	      0.93089992	      0.49188281	     12.12118464	      4.29243118	    -18.09938490	     14.24765320	     14.24765320	      7.75602470	      1.28485727	     -6.78277698	     30.91308932	    -12.28722369	      2.39602842	     70.24318317	     70.24318317	      8.35453937	    -18.36815704	     11.01248455	     -9.86663362	      7.75832325	      5.06162115	     10.53250878	    -14.96665998	     -9.48126841	     33.67098395	     45.88780732	      0.00000000	      0.00000000	      4.83495259	     -9.14304377	     -1.98504009	     67.00526398	     46.46972519	      0.00000000	      0.00000000
     48.85371429	     -3.35893378	     -6.26232129	      3.98859268	      1.13969562	      0.93171380	      0.49253369	     10.97564250	      4.48305184	    -18.25033575	     13.25894311	     13.25894311	      7.79343553	      1.47805033	     -7.19317763	     32.55068864	    -11.94304357	      2.57364883	     68.81562098	     68.81562098	      8.41181715	    -18.36823801	     11.17576050	     -9.94581246	      7.68558296	      5.30168782	     13.23589024	    -15.42004731	     -9.40022138	     34.33034401	     45.88480736	      0.00000000	      0.00000000	      4.74904409	     -8.24603048	     -1.62790850	     60.72003415	     46.39963245	      0.00000000	      0.00000000
     48.86557143	     -3.27583972	     -6.20250473	      4.35784675	      1.13834469	      0.93240875	      0.49314761	      9.82110684	      4.67286429	    -18.39789396	     12.32453028	     12.32453028	      7.96501705	      1.69339147	     -7.17372562	     33.93605566	    -11.55387818	      2.74043096	     67.02750006	     67.02750006	      8.41265618	    -18.37519197	     11.47820675	    -10.15412410	      7.57460213	      4.75412987	     16.19289086	    -15.43647553	     -9.46336342	     35.84761911	     45.85129693	      0.00000000	      0.00000000	      3.38379551	     -8.10487140	     -1.09098251	     57.28358355	     46.31417204	      0.00000000	      0.00000000
     48.87742857	     -3.18934375	     -6.16816848	      4.72211827	      1.13703450	      0.93301033	      0.49364980	      8.62376928	      4.89393212	    -18.63063027	     11.29525306	     11.29525306	      8.05654694	      2.05831820	     -7.22695876	     35.10936660	    -11.15553339	      2.89450569	     64.85455637	     64.85455637	      8.41982757	    -18.36042604	     11.89432047	    -10.33610074	      7.52875801	      4.49984629	     19.00231526	    -15.58382845	     -9.43501748	     37.09898131	     45.82249156	      0.00000000	      0.00000000	      2.74949391	     -7.70396659	     -0.58801448	     52.39968651	     46.22291540	      0.00000000	      0.00000000
     48.88928571	     -3.22382713	     -6.15547080	      4.99822737	      1.13571657	      0.93331858	      0.49413862	      7.63240081	      5.10425192	    -18.79534344	     10.40005702	     10.40005702	      8.12508338	      2.56584873	     -7.54166774	     36.19635325	    -10.81312944	      2.93821288	     62.26027630	     62.26027630	      8.37300422	    -18.17855678	     12.31786294	    -10.35743022	      7.51831510	      5.11849857	     21.23237808	    -16.29178533	     -9.42172054	     38.07269876	     45.80410309	      0.00000000	      0.00000000	      3.45498341	     -6.75252034	     -0.08160087	     45.24236319	     46.13280651	      0.00000000	      0.00000000
     48.90114286	     -3.18555988	     -6.03699910	      5.27260100	      1.13447590	      0.93352950	      0.49448678	      6.60551966	      5.20173955	    -18.96083766	      9.59913079	      9.59913079	      8.29699627	      2.79438402	     -7.52589883	     36.92490954	    -10.32839715	      2.92188426	     59.19717907	     59.19717907	      8.33844672	    -18.10101921	     12.61699078	    -10.54151751	      7.31650083	      4.92191657	     23.82836364	    -16.32491424	     -9.53190463	     39.68222827	     45.76592204	      0.00000000	      0.00000000	      2.27228302	     -6.62193484	      0.24943385	     42.38397215	     46.06665849	      0.00000000	      0.00000000
     48.91300000	     -3.27288380	     -6.07635756	      5.50872156	      1.13327741	      0.93338249	      0.49480849	      5.66890960	      5.44806759	    -19.33737654	      8.69508409	      8.69508409	      8.38237248	      3.54562066	     -7.80998177	     37.60623891	    -10.02940068	      2.90605346	     55.69133104	     55.69133104	      8.03370579	    -17.81904598	     12.01544566	    -10.49414131	      7.32217462	      5.52589133	     25.81783028	    -16.99441417	     -9.61661478	     41.38883084	     45.72226052	      0.00000000	      0.00000000	      2.94778302	     -5.89269027	      0.73645721	     35.44683224	     45.98728422	      0.00000000	      0.00000000
     48.92485714	     -3.37148972	     -6.08060773	      5.70664928	      1.13215435	      0.93308387	      0.49509841	      4.78083439	      5.65902437	    -19.54770759	      7.87507548	      7.87507548	      8.56471182	      4.11874419	     -7.85713219	     38.01748342	     -9.70163339	      2.83249013	     51.68255331	     51.68255331	      7.63887384	    -17.38250636	     11.12311830	    -10.52184657	      7.27807939	      5.66135871	     27.96993013	    -17.28913876	     -9.79943226	     43.68694582	     45.66225716	      0.00000000	      0.00000000	      2.37119747	     -5.59002357	      0.95569553	     31.48149734	     45.93389219	      0.00000000	      0.00000000
     48.93671429	     -3.49434926	     -6.08151705	      5.87187960	      1.13116963	      0.93264740	      0.49532703	      3.94461095	      5.85901646	    -19.64350699	      7.12693807	      7.12693807	      8.77460712	      4.52308556	     -7.84230522	     38.22270135	     -9.35419838	      2.75367527	     47.31005215	     47.31005215	      7.67300687	    -16.58485704	     11.18735917	    -10.52392318	      7.17554381	      5.35259440	     30.44491844	    -17.17299100	     -9.84947932	     45.42888027	     45.61512986	      0.00000000	      0.00000000	      0.91712100	     -5.66207934	      1.13833180	     29.60302482	     45.88182016	      0.00000000	      0.00000000
     48.94857143	     -3.70182869	     -6.20567410	      6.00926595	      1.13030584	      0.93185339	      0.49549864	      3.15921803	      6.16149004	    -20.10883704	      6.31108092	      6.31108092	      9.01115031	      5.61859026	     -7.83666401	     38.27457784	     -9.18294184	      2.59217471	     42.49007444	     42.49007444	      6.98875505	    -15.52429962	      9.18924409	    -10.35367699	      7.24852841	      5.55477831	     32.44833534	    -17.55671989	     -9.64463152	     47.83282055	     45.53463895	      0.00000000	      0.00000000	      0.52733100	     -5.40992037	      1.62697560	     25.34135683	     45.80568297	      0.00000000	      0.00000000
     48.96042857	     -4.00256096	     -6.22162973	      6.03259139	      1.12949349	      0.93085170	      0.49569268	      2.62785360	      6.31167887	    -20.03494076	      5.82211531	      5.82211531	      9.30878443	      5.84969474	     -7.87848183	     38.21520679	     -8.93402602	      2.29819678	     37.54279691	     37.54279691	      7.16345861	    -13.87226507	      9.49258758	    -10.11203375	      7.12653847	      5.69290601	     34.75319717	    -17.72159139	     -9.72084035	     49.31602805	     45.49805006	      0.00000000	      0.00000000	     -0.95116773	     -5.47174489	      1.70496514	     24.29933550	     45.76786098	      0.00000000	      0.00000000
     48.97228571	     -4.16223793	     -6.41599128	      6.09159666	      1.12906059	      0.92978240	      0.49578627	      1.78794232	      6.69121116	    -20.38919182	      5.07213587	      5.07213587	      9.71454814	      6.95670787	     -7.48093299	     37.77796505	     -8.89660634	      1.93518472	     32.29103693	     32.29103693	      6.39879797	    -12.07620619	      7.33723847	    -10.03529070	      7.29719595	      5.70969872	     36.48636532	    -17.85079035	     -9.37001130	     52.74659524	     45.38462473	      0.00000000	      0.00000000	     -1.87436623	     -5.49158531	      2.36155011	     21.39137999	     45.65362876	      0.00000000	      0.00000000
     48.98414286	     -4.42824732	     -6.52249004	      6.06259340	      1.12873283	      0.92847531	      0.49582310	      1.20539322	      6.92535513	    -20.30718430	      4.62317070	      4.62317070	     10.04652533	      7.25054666	     -7.55668940	     37.35404650	     -8.77522718	      1.44454918	     27.28162670	     27.28162670	      6.57943954	     -9.80397739	      7.96975768	     -9.78053839	      7.30124942	      5.72229072	     38.71547590	    -17.79114896	     -9.40318242	     54.25797139	     45.34600916	      0.00000000	      0.00000000	     -3.47649464	     -5.61066029	      2.44398461	     20.56055809	     45.60902200	      0.00000000	      0.00000000
     48.99600000	     -4.73135688	     -6.74018102	      6.03743566	      1.12855297	      0.92685207	      0.49574065	      0.68533728	      7.25735662	    -20.25732242	      4.22038797	      4.22038797	     10.41692275	      7.57786066	     -7.62946829	     36.97850086	     -8.73930210	      0.93941826	     22.63922377	     22.63922377	      6.70517311	     -7.42912490	      8.70322025	     -9.44911665	      7.46458641	      5.75837066	     40.89603100	    -17.70022076	     -9.37803810	     55.81634654	     45.30270389	      0.00000000	      0.00000000	     -4.98548426	     -5.65846478	      2.52791394	     19.85181862	     45.56357122	      0.00000000	      0.00000000
     49.00785714	     -4.83586526	     -6.84227168	      5.96658934	      1.12881275	      0.92540766	      0.49555601	     -0.12387774	      7.47687840	    -20.23822378	      3.78139580	      3.78139580	     10.88067383	      8.17192121	     -7.54384821	     36.36340484	     -8.69751529	     -0.03817625	     18.57453817	     18.57453817	      6.97036037	     -4.80269182	      9.60106007	     -9.34104295	      7.49867337	      5.40681748	     42.98815366	    -17.19762460	     -9.12865650	     58.02823319	     45.22907405	      0.00000000	      0.00000000	     -6.79808131	     -5.83303237	      2.69779585	     19.16130376	     45.48993371	      0.00000000	      0.00000000
     49.01971429	     -5.07570813	     -7.03549880	      5.90497905	      1.12907294	      0.92367563	      0.49519552	     -0.63643219	      7.70728433	    -20.35277922	      3.65850385	      3.65850385	     11.72092994	      8.88941255	     -6.61374240	     36.13875825	     -8.70266180	     -1.08387852	     15.50724658	     15.50724658	      7.75329231	     -2.24108025	     11.68473837	     -9.10713798	      7.64259913	      5.46215794	     44.46663865	    -17.35836905	     -8.41370795	     60.98151558	     45.13937156	      0.00000000	      0.00000000	     -8.73119884	     -6.12680978	      3.76994407	     19.77943832	     45.20042898	      0.00000000	      0.00000000
